<svg xmlns="http://www.w3.org/2000/svg" version="1.1" xmlns:xlink="http://www.w3.org/1999/xlink" xmlns:svgjs="http://svgjs.dev/svgjs" width="3000" height="650" preserveAspectRatio="none" viewBox="0 0 3000 650"><g mask="url(&quot;#SvgjsMask2223&quot;)" fill="none"><rect width="3000" height="650" x="0" y="0" fill="url(&quot;#SvgjsLinearGradient2224&quot;)"></rect><path d="M76 650L726 0L811.5 0L161.5 650z" fill="url(&quot;#SvgjsLinearGradient2225&quot;)"></path><path d="M554 650L1204 0L1579 0L929 650z" fill="url(&quot;#SvgjsLinearGradient2225&quot;)"></path><path d="M1055 650L1705 0L2138.5 0L1488.5 650z" fill="url(&quot;#SvgjsLinearGradient2225&quot;)"></path><path d="M1572 650L2222 0L2540 0L1890 650z" fill="url(&quot;#SvgjsLinearGradient2225&quot;)"></path><path d="M2930 650L2280 0L1909.5 0L2559.5 650z" fill="url(&quot;#SvgjsLinearGradient2226&quot;)"></path><path d="M2453 650L1803 0L1224 0L1874 650z" fill="url(&quot;#SvgjsLinearGradient2226&quot;)"></path><path d="M1996 650L1346 0L1233.5 0L1883.5 650z" fill="url(&quot;#SvgjsLinearGradient2226&quot;)"></path><path d="M1480 650L830 0L582.5 0L1232.5 650z" fill="url(&quot;#SvgjsLinearGradient2226&quot;)"></path><path d="M2373.1396182844474 650L3000 23.139618284447465L3000 650z" fill="url(&quot;#SvgjsLinearGradient2225&quot;)"></path><path d="M0 650L626.8603817155525 650L 0 23.139618284447465z" fill="url(&quot;#SvgjsLinearGradient2226&quot;)"></path></g><defs><mask id="SvgjsMask2223"><rect width="3000" height="650" fill="#ffffff"></rect></mask><linearGradient x1="19.58%" y1="190.38%" x2="80.42%" y2="-90.38%" gradientUnits="userSpaceOnUse" id="SvgjsLinearGradient2224"><stop stop-color="rgba(133, 34, 5, 1)" offset="0"></stop><stop stop-color="rgba(158, 74, 0, 1)" offset="0.99"></stop></linearGradient><linearGradient x1="0%" y1="100%" x2="100%" y2="0%" id="SvgjsLinearGradient2225"><stop stop-color="rgba(90, 6, 6, 0.2)" offset="0"></stop><stop stop-opacity="0" stop-color="rgba(90, 6, 6, 0.2)" offset="0.66"></stop></linearGradient><linearGradient x1="100%" y1="100%" x2="0%" y2="0%" id="SvgjsLinearGradient2226"><stop stop-color="rgba(90, 6, 6, 0.2)" offset="0"></stop><stop stop-opacity="0" stop-color="rgba(90, 6, 6, 0.2)" offset="0.66"></stop></linearGradient></defs></svg>